/* XPM */
static char *_e382dd033ff4cd9a80f6eaec50622b8[] = {
/* columns rows colors chars-per-pixel */
"64 64 76 1 ",
"  c #564F4A",
". c #58514C",
"X c #00BED3",
"o c #00C0D5",
"O c #0AC3D6",
"+ c #14C5D7",
"@ c #1BC6D7",
"# c #1DC8D7",
"$ c #11C6D8",
"% c #22C7D6",
"& c #24C8D7",
"* c #2AC8D7",
"= c #25C9D8",
"- c #2CCAD9",
"; c #37CAD7",
": c #35CCD9",
"> c #3BCDD9",
", c #43CED9",
"< c #4ACFD9",
"1 c #50CFDA",
"2 c #41D0DB",
"3 c #4CD0DB",
"4 c #55D2DA",
"5 c #5CD3DB",
"6 c #52D8DF",
"7 c #63D4DB",
"8 c #6BD6DC",
"9 c #65D9DE",
"0 c #6BD9DE",
"q c #73D6DC",
"w c #7AD7DB",
"e c #74D9DD",
"r c #7BDADD",
"t c #77DFE1",
"y c #7EDCE0",
"u c #83DADD",
"i c #8CDCDD",
"p c #94DCDD",
"a c #9BDEDE",
"s c #A6DFDE",
"d c #A9DFDD",
"f c #A4E1DF",
"g c #ABE1DE",
"h c #B4E2DE",
"j c #BAE3DF",
"k c #83DEE2",
"l c #8CDCE0",
"z c #92DEE0",
"x c #86E1E1",
"c c #8EE1E1",
"v c #93E1E1",
"b c #9CE2E1",
"n c #A4E1E0",
"m c #ACE3E0",
"M c #B3E4E0",
"N c #BCE5E0",
"B c #B9E9E2",
"V c #C4E5DF",
"C c #CCE5DF",
"Z c #D1E6DF",
"A c #D8E7DF",
"S c #D6E8DF",
"D c #DCE8DF",
"F c #FDECDF",
"G c #C3E6E0",
"H c #CBE6E0",
"J c #C4E9E2",
"K c #CDE9E1",
"L c #D1E7E0",
"P c #D4E9E1",
"I c #DCE9E0",
"U c #E3EAE0",
"Y c #ECEBE1",
"T c #F4ECE1",
"R c #FFEEE1",
"E c #FFF0E3",
/* pixels */
"RRRRRRRRRRRRRRRRRRLifaNRRRRRRRRRRRRRRRRRRMasgRRRREFEFEFEFEERRRRR",
"R  RRRR   RRF   FYru:wePRRRRRRRRRRRRRRRRGl<,enRR   FER   FFER  R",
"R R RR RER   FRRRCi$oorsRRRRRRRRRRRRRRRRs7oo2aTRFEE   RRE FF F E",
"RR    RRRRRRRRRFRCu+oorgRRRRRRRRRRRRRRRRne+O7eEREFEFRRREFE .  EF",
"RRR R R R RRRRRRRTiu<8ePRRRRRRRRRRRRRRRRUewwu4wIRRRRRR F E E.ERR",
"RRR . R  RRRRRLqYRYhsgDRRRRRRRRRRRRRRRRRRThhYRG4aRRRFEE  F   FRR",
"RR RRR RRRRRRj5CRRRRRRRRRRRRRRRRRRRRRRRRRRRRRRRTw0UFEFEFF ERE RR",
"R RR  R RRRRnrTRRRRRRRRRRRRRRRRRRRRRRRRRRRRRRRRREh4CFEFE E  FF R",
"R RRR RRRRFiiRRRRRRRRRRRRRRRRRRRRRRRRRRRRRRRRRRRRRU7jRRRRR FEF E",
"R RR RRRRRipRRRRRRRRRRRRRRRRRRRERRRRRRRRRRRRRRRRRRFY1JRRRRE FE F",
"RR RRRRRRapRRRRRRRRRRRRRRERRRRRLURRRRRRRRRRRRRRRRRRRI5KRRRRRR ER",
"RF RRRRRBkRRRRRRRRRRRRRREFRRRRFooRRRRRRRRRRRRRRRRRRREU5IRRRRR RR",
"RR RRRRUeTRRRRRRRRRRRRRRFEFERRbooKRRRRRRRRRRRRRRRRRRRRP5TRRRR FE",
"R FRRRRkKRRRRRRRRRRRRRRREFEFRR*ooXRRRRRRRRRRRRRRRRRREREfiRRRRE F",
"R RRRRJvRRRRRRRRRREFRRRRRRFEEgooooTRRRRRRRRRTYERRRRRRRRR0LRREF E",
"R RRRTyYRRRRRRRRRRjoRRRRRRRRFoooooXRRRRRRRRa*eRRRRRRRRRRJ8RRRE F",
"RRRRRhfRRRRRRRRRRRaXoZRRERRRZoooooXsRRRRRH2oouRRRRRRRRRRR0VRRRRR",
"RRRRReYRRRRRRRRRRRsoXofRFERRooO++OoXRRRRu$ooodRRRRRRRRRRRZ0ERRRR",
"RRRRJpRRRRRRRRRRRRfoooo7UFRRDCDYYAVYRRY>oooooVRRRRRRRRRRERqPRRRR",
"RRRRuPRRRRRRRRRRRRdoXooXuRRERREFRRRRRRTp:ooo@YRRRRRRRRRRRRjiRRRR",
"RRRYqRRRRRRRRRRRRRdooo4GRRRFFUCjjCURRRRRRs@o:RRRRRRRRRRRRRT9TRRR",
"RRRMpRRRRRRRRRRRRRgo+gRREFCeooXoXooouIRRRRU><RRRRRRRRRRRRRRiVRRR",
"RRRvGRRRRRRRRRRRRRaoLRRRgooooooooXooXo4VRRRYIRRRRRRRERRRRRRjiRRR",
"RRR0URRRRRRRRRRRRRIURRC<oo+51,igs8oo5XOo5IRRRRRRRRRRRRRRRRRY8RRR",
"RRReRRRRRRRRRRGsRRRRRiOoOqC0sRRRFFYooL1oX+sRRRRRUGRRRRRRRRRRURRR",
"RRYuRRRRRRRRRI#fRRRY4oo,CR5MRL8:>wUEooRa$oo9TRRRsXsRRRRRRRRRRRRR",
"RRhqURRRRRRRRgogRRh-oOuREbrEnOoooo#PRoJRH>oXXVRRzodRRRRRRRYffgDE",
"UauuffRRRRRRRLoOsgoX+hRRT5YU$oooooo:RCoRRReOXOXsoosRRRRRRTuv8irK",
"n7oo2bKRRRFRRR9Xooo=KRRRgjFuoo=Mg@ooGRssRRRGoXooXxRRFRRFRGf-oOrr",
"p=ooorqiipppYRRdqqO>RRRRooF7oofRR8oosTooRRRRo$75gRRIppppaeuooo4i",
"p:ooowiHCVhhTRRRRRtXbRRRooF8oo8ET>oosRXoRRRXXsRRRRRUhjjjhpiooo7i",
"cv3=9rIRRRRRRRRRRRY*OHRRfHEVooo:=ooOITdsRRoo6dRRRRRRRRRRFIuq58uc",
"YpbaaJRRRRRRRRRRRRRHO&URRqNReoooooXyRosRRooXdRRRRRRRRRRRRRGiqwaT",
"RRUURRRRRRRRRRRRRRRRMo@GRK3TRi=oo=iRAoYRXO&sRRRRRRRRRRRRRRRR7URR",
"RRRRRRRRRRRRRRRRRRRRRd+ouRf4URRLLRRHoGIoo>sRRRRRRRRRRRRRRRRRwTRR",
"RRYsRRRRRRRRRRRRRRRRRRd1X%au<pIRRIuXooooufRRRRRRRRRRRRRRRRRY0RRR",
"RRT7TRRRRRRRRRRRRRRRRRRsm>oO+oO==OX+ooosRRRRRRRRRRRRRRRRRRRHrRRR",
"RRRqIRRRRRRRRRRRRRRRRRRRgRsu,+ooXo:5ndsRRRRRRRRRRRRRRRRRRRRbfRRR",
"RRRsfRRRDgw7TERRRRRRRRRRRRRRsdfooNsdRRRRRRRRRRRRRRRRRRRRRRReIRRR",
"RRRI0RjeegYnyRRRRRRRRRRRRRRRRRMooGRRRRRRRRRRRRRRRRRRRRRRRRU8RRRR",
"RRRRi5iDRRRR9NRRRRRRRRRRRRRRRRsoosRRRRRRRRRRRRRRRRRRRRRRRRbfRRRR",
"RRRREYRRRRRRP4TRRRRRRRRRRRRRRRiooaRRRRRRRRRRRRRRRRRRRRRRRRwYRRRR",
"RRRRRRRRRRRRRn7ERRRRRRRRRRRRRR7oo9RRRRRRRRRRRChCRRRRRRRRRMaRRRRR",
"RRRRRRRRRRRRRRkeRRRRRRRRRRRRRR>oX>RRRRRRRRRRh51qBRRRRRRRY4YRRRRR",
"RRRRRRRRRRRRRRRqqTRRRRRRRRRREY@oo+YRRRRRRRRRz%o=iTRRRRRR9gERRRRR",
"RRRRRRRRRRRRRRRs;8NRRRRRRRRRENooooNRRRRRRRRRf:O2zTRRRRRf9RRRRRRR",
"RRRRRRRRRRRRRRmwRUqqIRRRRRRRRiooookRRRRRRRRC49qqJRRRRRI>URRRRRRR",
"RFRRRRRRRRRRRUaRRRRM5uURRRRRE1oooo1RRRRRRUcwDYZURRRRRE3mRRRRRRFR",
"F RRRRRRRTjsKERRRRRRRf7iYRRRT%oooo=TFEFTpqjFRRRRRRRRRprRRRRRRF E",
"R RRRRRRRN4:7DRRRRRRRFE4PRRRLOooooOAEFEA9FEERRRRRRRRN0ERRRRREF F",
"R FRRRRRRh=o4VRRRREFRRYiRRRRHoooooOZFEFErUEFRRRRRRRj0TRRRRRRFF.R",
"RE RRRRRRK94uYRRRRRERRmhRRRRPOooooOURREFhvRRRRRRRRp7TRRRRRRRF ER",
"RR ERRRRRRICYRRRRRRFRRrTRRRRY+oooo-TEFEERrTERRRRTreTRRRREFEFE FF",
"RF RFRRRRRRRRRRRRRRYUgbRRRRRR4oooowEFEFEEfGFEFRV5aRRRRRRFEFFR.FR",
"R ER FRRRRRRRRRRRRGaiqvRRRRRRI%oo:YEEFEFEUeRRUe4SRRRRRRRERF RR F",
"R RRR RFRRRRRRRRRYa;O-eZRRRRRRUuiYREFEFEFFugp1aRERRRRRRRFR RRE R",
"R FR .F RERRRRRRRS8ooo4hEFEFEFEFEFEFEFEFRRU4iYRRRRRRRRRE F. RF.R",
"RE FRR FFRRRRRRRRDr:o@qKFEFEFEFEFEFEFEEERRERRRRRRRRRRRRFR REF ER",
"RRE   E  FRRRRRRRRgapagREEEFEFFEEFEFFEFERRRRRRREEFRRRRF  E   ERR",
"RRF R R.E RRRRRRRREFRREREFFEFEEFFEFEEFEFRRRERRRRFERRRR E R F FRR",
"RF   .FEREFFFRRREFEEEFEFFEFEFEFERREFFEFFRFRFRFFFFFEFFFEFEF.   FR",
"R E EE FFF   FFFFEEFFEFEEFEFEFEFEEFEEFFERFFRFFEEFFF   FFF EE E R",
"R. ERRE   EEE   EFEFEFFEFEFEFEFEFEEFEFEFFFRFRRFF   EER   ERRE  R",
"RRRRRRRRRERRRRREFEFEFEEFEFEFEFEFEFFEFEFEEFERRREFERRFEFERRRRRRRRR"
};
